<svg width="96" height="22" viewBox="0 0 96 22" fill="none" xmlns="http://www.w3.org/2000/svg">
<rect width="96" height="22" rx="5" fill="#E45B37"/>
<path d="M31.7363 12.8027C31.7363 12.4277 31.6035 12.1387 31.3379 11.9355C31.0762 11.7324 30.6016 11.5273 29.9141 11.3203C29.2266 11.1133 28.6797 10.8828 28.2734 10.6289C27.4961 10.1406 27.1074 9.50391 27.1074 8.71875C27.1074 8.03125 27.3867 7.46484 27.9453 7.01953C28.5078 6.57422 29.2363 6.35156 30.1309 6.35156C30.7246 6.35156 31.2539 6.46094 31.7188 6.67969C32.1836 6.89844 32.5488 7.21094 32.8145 7.61719C33.0801 8.01953 33.2129 8.4668 33.2129 8.95898H31.7363C31.7363 8.51367 31.5957 8.16602 31.3145 7.91602C31.0371 7.66211 30.6387 7.53516 30.1191 7.53516C29.6348 7.53516 29.2578 7.63867 28.9883 7.8457C28.7227 8.05273 28.5898 8.3418 28.5898 8.71289C28.5898 9.02539 28.7344 9.28711 29.0234 9.49805C29.3125 9.70508 29.7891 9.9082 30.4531 10.1074C31.1172 10.3027 31.6504 10.5273 32.0527 10.7812C32.4551 11.0312 32.75 11.3203 32.9375 11.6484C33.125 11.9727 33.2188 12.3535 33.2188 12.791C33.2188 13.502 32.9453 14.0684 32.3984 14.4902C31.8555 14.9082 31.1172 15.1172 30.1836 15.1172C29.5664 15.1172 28.998 15.0039 28.4785 14.7773C27.9629 14.5469 27.5605 14.2305 27.2715 13.8281C26.9863 13.4258 26.8438 12.957 26.8438 12.4219H28.3262C28.3262 12.9062 28.4863 13.2812 28.8066 13.5469C29.127 13.8125 29.5859 13.9453 30.1836 13.9453C30.6992 13.9453 31.0859 13.8418 31.3438 13.6348C31.6055 13.4238 31.7363 13.1465 31.7363 12.8027ZM39.4227 14.3789C39.0047 14.8711 38.4109 15.1172 37.6414 15.1172C36.9539 15.1172 36.4324 14.916 36.077 14.5137C35.7254 14.1113 35.5496 13.5293 35.5496 12.7676V8.66016H36.9734V12.75C36.9734 13.5547 37.3074 13.957 37.9754 13.957C38.6668 13.957 39.1336 13.709 39.3758 13.2129V8.66016H40.7996V15H39.4578L39.4227 14.3789ZM49.0133 11.8945C49.0133 12.8789 48.7926 13.6621 48.3512 14.2441C47.9137 14.8262 47.3102 15.1172 46.5406 15.1172C45.7984 15.1172 45.2203 14.8496 44.8062 14.3145L44.7359 15H43.4469V6H44.8707V9.26953C45.2809 8.78516 45.8336 8.54297 46.5289 8.54297C47.3023 8.54297 47.9098 8.83008 48.3512 9.4043C48.7926 9.97852 49.0133 10.7812 49.0133 11.8125V11.8945ZM47.5895 11.7715C47.5895 11.084 47.4684 10.5684 47.2262 10.2246C46.984 9.88086 46.6324 9.70898 46.1715 9.70898C45.5543 9.70898 45.1207 9.97852 44.8707 10.5176V13.1309C45.1246 13.6816 45.5621 13.957 46.1832 13.957C46.6285 13.957 46.9723 13.791 47.2145 13.459C47.4566 13.127 47.5816 12.625 47.5895 11.9531V11.7715ZM52.7504 8.66016L52.7914 9.32227C53.2367 8.80273 53.8461 8.54297 54.6195 8.54297C55.4672 8.54297 56.0473 8.86719 56.3598 9.51562C56.8207 8.86719 57.4691 8.54297 58.3051 8.54297C59.0043 8.54297 59.5238 8.73633 59.8637 9.12305C60.2074 9.50977 60.3832 10.0801 60.391 10.834V15H58.9672V10.875C58.9672 10.4727 58.8793 10.1777 58.7035 9.99023C58.5277 9.80273 58.2367 9.70898 57.8305 9.70898C57.5063 9.70898 57.2406 9.79688 57.0336 9.97266C56.8305 10.1445 56.6879 10.3711 56.6059 10.6523L56.6117 15H55.1879V10.8281C55.1684 10.082 54.7875 9.70898 54.0453 9.70898C53.475 9.70898 53.0707 9.94141 52.8324 10.4062V15H51.4086V8.66016H52.7504ZM64.5676 15H63.1437V8.66016H64.5676V15ZM63.0559 7.01367C63.0559 6.79492 63.1242 6.61328 63.2609 6.46875C63.4016 6.32422 63.6008 6.25195 63.8586 6.25195C64.1164 6.25195 64.3156 6.32422 64.4562 6.46875C64.5969 6.61328 64.6672 6.79492 64.6672 7.01367C64.6672 7.22852 64.5969 7.4082 64.4562 7.55273C64.3156 7.69336 64.1164 7.76367 63.8586 7.76367C63.6008 7.76367 63.4016 7.69336 63.2609 7.55273C63.1242 7.4082 63.0559 7.22852 63.0559 7.01367ZM69.1074 7.11914V8.66016H70.2266V9.71484H69.1074V13.2539C69.1074 13.4961 69.1543 13.6719 69.248 13.7812C69.3457 13.8867 69.5176 13.9395 69.7637 13.9395C69.9277 13.9395 70.0938 13.9199 70.2617 13.8809V14.9824C69.9375 15.0723 69.625 15.1172 69.3242 15.1172C68.2305 15.1172 67.6836 14.5137 67.6836 13.3066V9.71484H66.6406V8.66016H67.6836V7.11914H69.1074Z" fill="white"/>
</svg>
