<svg width="96" height="22" viewBox="0 0 96 22" fill="none" xmlns="http://www.w3.org/2000/svg">
<rect width="96" height="22" rx="5" fill="#E45B37"/>
<path d="M31.7109 12.8027C31.7109 12.4277 31.5781 12.1387 31.3125 11.9355C31.0508 11.7324 30.5762 11.5273 29.8887 11.3203C29.2012 11.1133 28.6543 10.8828 28.248 10.6289C27.4707 10.1406 27.082 9.50391 27.082 8.71875C27.082 8.03125 27.3613 7.46484 27.9199 7.01953C28.4824 6.57422 29.2109 6.35156 30.1055 6.35156C30.6992 6.35156 31.2285 6.46094 31.6934 6.67969C32.1582 6.89844 32.5234 7.21094 32.7891 7.61719C33.0547 8.01953 33.1875 8.4668 33.1875 8.95898H31.7109C31.7109 8.51367 31.5703 8.16602 31.2891 7.91602C31.0117 7.66211 30.6133 7.53516 30.0938 7.53516C29.6094 7.53516 29.2324 7.63867 28.9629 7.8457C28.6973 8.05273 28.5645 8.3418 28.5645 8.71289C28.5645 9.02539 28.709 9.28711 28.998 9.49805C29.2871 9.70508 29.7637 9.9082 30.4277 10.1074C31.0918 10.3027 31.625 10.5273 32.0273 10.7812C32.4297 11.0312 32.7246 11.3203 32.9121 11.6484C33.0996 11.9727 33.1934 12.3535 33.1934 12.791C33.1934 13.502 32.9199 14.0684 32.373 14.4902C31.8301 14.9082 31.0918 15.1172 30.1582 15.1172C29.541 15.1172 28.9727 15.0039 28.4531 14.7773C27.9375 14.5469 27.5352 14.2305 27.2461 13.8281C26.9609 13.4258 26.8184 12.957 26.8184 12.4219H28.3008C28.3008 12.9062 28.4609 13.2812 28.7812 13.5469C29.1016 13.8125 29.5605 13.9453 30.1582 13.9453C30.6738 13.9453 31.0605 13.8418 31.3184 13.6348C31.5801 13.4238 31.7109 13.1465 31.7109 12.8027ZM38.3484 15.1172C37.4461 15.1172 36.7137 14.834 36.1512 14.2676C35.5926 13.6973 35.3133 12.9395 35.3133 11.9941V11.8184C35.3133 11.1855 35.4344 10.6211 35.6766 10.125C35.9227 9.625 36.2664 9.23633 36.7078 8.95898C37.1492 8.68164 37.6414 8.54297 38.1844 8.54297C39.0477 8.54297 39.7137 8.81836 40.1824 9.36914C40.6551 9.91992 40.8914 10.6992 40.8914 11.707V12.2812H36.7488C36.7918 12.8047 36.9656 13.2188 37.2703 13.5234C37.5789 13.8281 37.9656 13.9805 38.4305 13.9805C39.0828 13.9805 39.6141 13.7168 40.0242 13.1895L40.7918 13.9219C40.5379 14.3008 40.198 14.5957 39.7723 14.8066C39.3504 15.0137 38.8758 15.1172 38.3484 15.1172ZM38.1785 9.68555C37.7879 9.68555 37.4715 9.82227 37.2293 10.0957C36.991 10.3691 36.8387 10.75 36.7723 11.2383H39.4852V11.1328C39.4539 10.6562 39.327 10.2969 39.1043 10.0547C38.8816 9.80859 38.573 9.68555 38.1785 9.68555ZM46.9898 15C46.9273 14.8789 46.8727 14.6816 46.8258 14.4082C46.3727 14.8809 45.818 15.1172 45.1617 15.1172C44.525 15.1172 44.0055 14.9355 43.6031 14.5723C43.2008 14.209 42.9996 13.7598 42.9996 13.2246C42.9996 12.5488 43.2496 12.0312 43.7496 11.6719C44.2535 11.3086 44.9723 11.127 45.9059 11.127H46.7789V10.7109C46.7789 10.3828 46.6871 10.1211 46.5035 9.92578C46.3199 9.72656 46.0406 9.62695 45.6656 9.62695C45.3414 9.62695 45.0758 9.70898 44.8687 9.87305C44.6617 10.0332 44.5582 10.2383 44.5582 10.4883H43.1344C43.1344 10.1406 43.2496 9.81641 43.4801 9.51562C43.7105 9.21094 44.023 8.97266 44.4176 8.80078C44.816 8.62891 45.2594 8.54297 45.7477 8.54297C46.4898 8.54297 47.0816 8.73047 47.523 9.10547C47.9645 9.47656 48.191 10 48.2027 10.6758V13.5352C48.2027 14.1055 48.2828 14.5605 48.443 14.9004V15H46.9898ZM45.4254 13.9746C45.7066 13.9746 45.9703 13.9062 46.2164 13.7695C46.4664 13.6328 46.6539 13.4492 46.7789 13.2188V12.0234H46.0113C45.484 12.0234 45.0875 12.1152 44.8219 12.2988C44.5562 12.4824 44.4234 12.7422 44.4234 13.0781C44.4234 13.3516 44.5133 13.5703 44.693 13.7344C44.8766 13.8945 45.1207 13.9746 45.4254 13.9746ZM54.2133 9.96094C54.0258 9.92969 53.8324 9.91406 53.6332 9.91406C52.9809 9.91406 52.5414 10.1641 52.3148 10.6641V15H50.891V8.66016H52.2504L52.2855 9.36914C52.6293 8.81836 53.1059 8.54297 53.7152 8.54297C53.9184 8.54297 54.0863 8.57031 54.2191 8.625L54.2133 9.96094ZM58.8 13.9805C59.1555 13.9805 59.4504 13.877 59.6848 13.6699C59.9191 13.4629 60.0441 13.207 60.0598 12.9023H61.4016C61.3859 13.2969 61.2629 13.666 61.0324 14.0098C60.802 14.3496 60.4895 14.6191 60.0949 14.8184C59.7004 15.0176 59.2746 15.1172 58.8176 15.1172C57.9309 15.1172 57.2277 14.8301 56.7082 14.2559C56.1887 13.6816 55.9289 12.8887 55.9289 11.877V11.7305C55.9289 10.7656 56.1867 9.99414 56.7023 9.41602C57.218 8.83398 57.9211 8.54297 58.8117 8.54297C59.5656 8.54297 60.1789 8.76367 60.6516 9.20508C61.1281 9.64258 61.3781 10.2188 61.4016 10.9336H60.0598C60.0441 10.5703 59.9191 10.2715 59.6848 10.0371C59.4543 9.80273 59.1594 9.68555 58.8 9.68555C58.3391 9.68555 57.9836 9.85352 57.7336 10.1895C57.4836 10.5215 57.3566 11.0273 57.3527 11.707V11.9355C57.3527 12.623 57.4758 13.1367 57.7219 13.4766C57.9719 13.8125 58.3312 13.9805 58.8 13.9805ZM65.0801 9.35156C65.5449 8.8125 66.1328 8.54297 66.8438 8.54297C68.1953 8.54297 68.8809 9.31445 68.9004 10.8574V15H67.4766V10.9102C67.4766 10.4727 67.3809 10.1641 67.1895 9.98438C67.002 9.80078 66.7246 9.70898 66.3574 9.70898C65.7871 9.70898 65.3613 9.96289 65.0801 10.4707V15H63.6562V6H65.0801V9.35156Z" fill="white"/>
</svg>
